{
    "asset" : {
        "generator" : "Khronos glTF Blender I/O v0.9.36",
        "version" : "2.0"
    },
    "scene" : 0,
    "scenes" : [
        {
            "name" : "Scene",
            "nodes" : [
                0
            ]
        }
    ],
    "nodes" : [
        {
            "mesh" : 0,
            "name" : "Cube",
            "rotation" : [
                1,
                0,
                0,
                -2.821299744937278e-07
            ],
            "translation" : [
                0,
                0,
                2.56347918510437
            ]
        }
    ],
    "materials" : [
        {
            "doubleSided" : true,
            "name" : "foil",
            "pbrMetallicRoughness" : {
                "baseColorFactor" : [
                    0.8000000715255737,
                    0.550750732421875,
                    0.12260930240154266,
                    1
                ],
                "metallicFactor" : 0.5945945978164673,
                "roughnessFactor" : 0.10270270705223083
            }
        },
        {
            "doubleSided" : true,
            "name" : "solarpanel",
            "pbrMetallicRoughness" : {
                "baseColorFactor" : [
                    0.09083821624517441,
                    0.09083821624517441,
                    0.09083821624517441,
                    1
                ],
                "metallicFactor" : 0,
                "roughnessFactor" : 0
            }
        },
        {
            "doubleSided" : true,
            "name" : "glass",
            "pbrMetallicRoughness" : {
                "baseColorFactor" : [
                    0.800000011920929,
                    0.800000011920929,
                    0.800000011920929,
                    1
                ],
                "metallicFactor" : 1,
                "roughnessFactor" : 0.06756755709648132
            }
        },
        {
            "doubleSided" : true,
            "name" : "black",
            "pbrMetallicRoughness" : {
                "baseColorFactor" : [
                    0,
                    0,
                    0,
                    1
                ],
                "metallicFactor" : 1,
                "roughnessFactor" : 0
            }
        }
    ],
    "meshes" : [
        {
            "name" : "Cube",
            "primitives" : [
                {
                    "attributes" : {
                        "POSITION" : 0,
                        "NORMAL" : 1,
                        "TEXCOORD_0" : 2
                    },
                    "indices" : 3,
                    "material" : 0
                },
                {
                    "attributes" : {
                        "POSITION" : 4,
                        "NORMAL" : 5,
                        "TEXCOORD_0" : 6
                    },
                    "indices" : 7,
                    "material" : 1
                },
                {
                    "attributes" : {
                        "POSITION" : 8,
                        "NORMAL" : 9,
                        "TEXCOORD_0" : 10
                    },
                    "indices" : 11,
                    "material" : 2
                },
                {
                    "attributes" : {
                        "POSITION" : 12,
                        "NORMAL" : 13,
                        "TEXCOORD_0" : 14
                    },
                    "indices" : 15,
                    "material" : 3
                }
            ]
        }
    ],
    "accessors" : [
        {
            "bufferView" : 0,
            "componentType" : 5126,
            "count" : 114,
            "max" : [
                1,
                2.910956382751465,
                4.945779800415039
            ],
            "min" : [
                -1,
                -2.910956382751465,
                -1
            ],
            "type" : "VEC3"
        },
        {
            "bufferView" : 1,
            "componentType" : 5126,
            "count" : 114,
            "type" : "VEC3"
        },
        {
            "bufferView" : 2,
            "componentType" : 5126,
            "count" : 114,
            "type" : "VEC2"
        },
        {
            "bufferView" : 3,
            "componentType" : 5123,
            "count" : 258,
            "type" : "SCALAR"
        },
        {
            "bufferView" : 4,
            "componentType" : 5126,
            "count" : 20,
            "max" : [
                1,
                2.910956382751465,
                4.945779800415039
            ],
            "min" : [
                -1,
                -2.910956382751465,
                -1
            ],
            "type" : "VEC3"
        },
        {
            "bufferView" : 5,
            "componentType" : 5126,
            "count" : 20,
            "type" : "VEC3"
        },
        {
            "bufferView" : 6,
            "componentType" : 5126,
            "count" : 20,
            "type" : "VEC2"
        },
        {
            "bufferView" : 7,
            "componentType" : 5123,
            "count" : 60,
            "type" : "SCALAR"
        },
        {
            "bufferView" : 8,
            "componentType" : 5126,
            "count" : 32,
            "max" : [
                1.2745319604873657,
                0.41970524191856384,
                4.5690226554870605
            ],
            "min" : [
                1.2745319604873657,
                -0.5258632898330688,
                3.6234540939331055
            ],
            "type" : "VEC3"
        },
        {
            "bufferView" : 9,
            "componentType" : 5126,
            "count" : 32,
            "type" : "VEC3"
        },
        {
            "bufferView" : 10,
            "componentType" : 5126,
            "count" : 32,
            "type" : "VEC2"
        },
        {
            "bufferView" : 11,
            "componentType" : 5123,
            "count" : 90,
            "type" : "SCALAR"
        },
        {
            "bufferView" : 12,
            "componentType" : 5126,
            "count" : 256,
            "max" : [
                1.4233607053756714,
                0.520805299282074,
                4.6701226234436035
            ],
            "min" : [
                0.27559179067611694,
                -0.6269634366035461,
                3.5223541259765625
            ],
            "type" : "VEC3"
        },
        {
            "bufferView" : 13,
            "componentType" : 5126,
            "count" : 256,
            "type" : "VEC3"
        },
        {
            "bufferView" : 14,
            "componentType" : 5126,
            "count" : 256,
            "type" : "VEC2"
        },
        {
            "bufferView" : 15,
            "componentType" : 5123,
            "count" : 384,
            "type" : "SCALAR"
        }
    ],
    "bufferViews" : [
        {
            "buffer" : 0,
            "byteLength" : 1368,
            "byteOffset" : 0
        },
        {
            "buffer" : 0,
            "byteLength" : 1368,
            "byteOffset" : 1368
        },
        {
            "buffer" : 0,
            "byteLength" : 912,
            "byteOffset" : 2736
        },
        {
            "buffer" : 0,
            "byteLength" : 516,
            "byteOffset" : 3648
        },
        {
            "buffer" : 0,
            "byteLength" : 240,
            "byteOffset" : 4164
        },
        {
            "buffer" : 0,
            "byteLength" : 240,
            "byteOffset" : 4404
        },
        {
            "buffer" : 0,
            "byteLength" : 160,
            "byteOffset" : 4644
        },
        {
            "buffer" : 0,
            "byteLength" : 120,
            "byteOffset" : 4804
        },
        {
            "buffer" : 0,
            "byteLength" : 384,
            "byteOffset" : 4924
        },
        {
            "buffer" : 0,
            "byteLength" : 384,
            "byteOffset" : 5308
        },
        {
            "buffer" : 0,
            "byteLength" : 256,
            "byteOffset" : 5692
        },
        {
            "buffer" : 0,
            "byteLength" : 180,
            "byteOffset" : 5948
        },
        {
            "buffer" : 0,
            "byteLength" : 3072,
            "byteOffset" : 6128
        },
        {
            "buffer" : 0,
            "byteLength" : 3072,
            "byteOffset" : 9200
        },
        {
            "buffer" : 0,
            "byteLength" : 2048,
            "byteOffset" : 12272
        },
        {
            "buffer" : 0,
            "byteLength" : 768,
            "byteOffset" : 14320
        }
    ],
    "buffers" : [
        {
            "byteLength" : 15088,
            "uri" : "data:application/octet-stream;base64,"
        }
    ]
}
